<?xml version="1.0" encoding="UTF-8"?>
<!-- Generator: Adobe Illustrator 27.3.1, SVG Export Plug-In . SVG Version: 6.00 Build 0)  -->
<svg xmlns="http://www.w3.org/2000/svg" xmlns:xlink="http://www.w3.org/1999/xlink" version="1.1" id="Layer_1" x="0px" y="0px" viewBox="0 0 3809.5 3400.8" style="enable-background:new 0 0 3809.5 3400.8;" xml:space="preserve">
<style type="text/css">
	.st0{fill:none;}
	.st1{fill:#F15B30;}
	.st2{fill:#F7943E;}
	.st3{fill:#F47936;}
	.st4{fill:#EF3B24;}
	.st5{fill:#F15A31;}
	.st6{fill:#FFC863;}
	.st7{fill:#FFDA87;}
	.st8{fill:#F15B2F;}
	.st9{fill:url(#SVGID_1_);}
	.st10{fill:url(#SVGID_00000042013494844591813280000008733890952264754598_);}
	.st11{fill:url(#SVGID_00000137837681532894860050000016235857544581590459_);}
	.st12{fill:url(#SVGID_00000147907762041613963140000012743413061240876179_);}
	.st13{fill:url(#SVGID_00000182518254910682738180000005635267226544673205_);}
</style>
<g>
	<path class="st0" d="M1173.4,1749.7h-42.3v131.7h42.3c36.7,0,56.6-23.1,56.6-66.5C1230,1772.3,1210.1,1749.7,1173.4,1749.7z"></path>
	<path class="st0" d="M775.8,2871.9c16.4-4.8,43.5-13.8,66.2-17.4c5-0.6,8.8,1.8,13.9-1.2c4.4-5.4,1.3-21.6,0-31.8   c-2.5-15,1.3-51.1-1.9-67.3c-1.9-11.4,1.9-17.4-1.3-21.6c-21.5,31.2-43.5,61.3-66.2,91.9c-8.8,11.4-23.3,22.8-27.1,37.3H755   c-1.3,7.2-4.4,9-6.3,14.4h7.6C761.3,2873.1,768.9,2873.7,775.8,2871.9z"></path>
	<path class="st0" d="M881.3,1873.7c-6.2-28.5-13.1-74.2-17.4-102.1h-1.9c-3.7,27.9-10.6,73.6-16.8,102.1l-17.4,77.1h70.9   L881.3,1873.7z"></path>
	<path class="st0" d="M1842.9,1277.1c-21.8,23.9-50.7,41.1-72.6,65C1792.2,1318.3,1821.2,1301,1842.9,1277.1   c184.5-202.5,408.3-295.1,648.9-326.1C2251.3,982,2027.5,1074.6,1842.9,1277.1z"></path>
	<path class="st0" d="M2638.4,940.4c4.3-0.1,8.6-0.1,13-0.1C2647.1,940.3,2642.8,940.4,2638.4,940.4z"></path>
	<path class="st0" d="M1734,2971c8.8-6.6,17.7-15.6,24.6-23.4c8.2-8.4,27.1-77.5,27.8-89.5h-3.2c-13.2,22.2-41,33.6-49.8,60.1h-5.7   c-1.9,21.6-22.7,33-22.7,58.3c3.2,2.4,4.4,3.6,12,4.2C1722.1,2972.2,1727.7,2977,1734,2971z"></path>
	<path class="st0" d="M2676.2,940.5c202.6,3.3,400.8,54.8,594.5,135.7c4.9,2,9.8,4.4,14.7,7c-4.9-2.5-9.8-4.9-14.7-7   C3077,995.3,2878.8,943.8,2676.2,940.5z"></path>
	<path class="st0" d="M1779.4,1749.7h-38.5v276.5h38.5c37.9,0,58.4-23.1,58.4-67v-144.8C1837.9,1771.7,1817.3,1749.7,1779.4,1749.7z   "></path>
	<path class="st0" d="M2515.6,948.2c-4.1,0.5-8.3,0.9-12.4,1.4C2507.3,949.1,2511.5,948.7,2515.6,948.2z"></path>
	<path class="st0" d="M932.3,2242.8h-1.9c-3.7,27.9-10.6,73.6-16.8,102.1l-17.4,77.1h70.9l-17.4-77.1   C943.5,2316.4,936.6,2270.7,932.3,2242.8z"></path>
	<path class="st0" d="M1298.8,942.5l0.1-0.2C1298.9,942.4,1298.8,942.5,1298.8,942.5z"></path>
	<path class="st0" d="M2606.9,941.3c-6,0.2-12,0.5-18,0.8C2594.9,941.8,2600.9,941.5,2606.9,941.3z"></path>
	<path class="st1" d="M3375.2,1094.1C3375.2,1094.1,3375.1,1094.2,3375.2,1094.1C3375.1,1094.2,3375.1,1094.2,3375.2,1094.1   C3375.2,1094.2,3375.2,1094.1,3375.2,1094.1z"></path>
	<path class="st1" d="M3687.4,1160.9c-41.6,32.5-90.8,23.9-135.1,43.8c-63.4,28.5-120.8,24.4-131-80c-19.1-0.7-42.1,9-48.7-25.6   c0,0,2.1-4,2.6-4.8c-32.7,22-61.6,3.3-89.7-11.1c-4.9-2.5-9.8-4.9-14.7-7c-193.7-80.9-391.9-132.4-594.5-135.7   c-8.3-0.1-16.5-0.2-24.8-0.2c-4.3,0-8.6,0.1-13,0.1c-10.5,0.1-21,0.4-31.5,0.8c-6,0.2-12,0.5-18,0.8c-18.4,1-36.9,2.4-55.3,4.2   c-6,0.6-12,1.2-18,1.9c-4.1,0.5-8.3,0.9-12.4,1.4c-3.8,0.5-7.6,0.9-11.3,1.4c-240.6,31-464.4,123.6-648.9,326.1   c-21.8,23.9-50.7,41.1-72.6,65c-19.9,21.8-34,49.1-31.4,92.1c0,0,0,0,0,0c67-7.7,133.5-21.1,183.5,58c23.4,37,64.6,24,95.1,14.4   c250-78.2,499.3-133.6,762-101.2c194.9,24,383.4,70.3,558.7,165.9c85.6,46.7,146.5,39.5,212.6-19.5   c97.2-86.8,176.6-190,191.4-342.7C3747,1159.6,3736.2,1122.9,3687.4,1160.9z"></path>
	<path class="st1" d="M1622.2,1469.9c-0.7,0.1-1.4,0.1-2.1,0.2c0.2,0.5,0.4,1,0.7,1.5L1622.2,1469.9z"></path>
	<path class="st1" d="M2866,548.5c-328.1-66.5-652.4-78.8-971.8,53.5c-281,116.4-503.1,322.5-662.1,623.7   c-12.9,24.4-16.2,59.8-49,62c-11.2,58.6,13.5,96.4,54.8,117c68.8,34.3,116.1,142.2,204.6,103.3c58.9-25.9,117.2-33.5,177.6-38   c-12.9-30.5,6-49.9,18.5-71.6c1.5-4.1,4-7.1,7.5-8.8c10.6-39.7,38.9-62.9,60.4-92.4c4-4.9,8-9.8,12-14.5   c40.2-67.3,90.8-120.6,144.1-174.6C2142.6,824.7,2473,718.7,2830,701.8c103-4.9,206.3-0.8,308.9-0.8c5-61.7-33.7-87.3-56.9-123.7   C3004.9,628.1,2936.4,562.8,2866,548.5z"></path>
	<path class="st2" d="M2450.4,2078.8c-122.8-18.5-149.4-4.1-214.3,85.4c-3.6,5-8.6,8.6-13,12.9c-91.8,89.7-101.7,223.7-20.6,319.2   c38.8,45.7,69.9,87.3,66.6,161.7c-2.5,56.9,23.1,104,87.4,88.5c208.2-50.4,412.8-18.7,615.4,45.3c14.4,4.5,35.1,30.1,38.5-1   c7-62.5,41.8-75.4,82.7-94c38.9-17.7,54.8-73,36.2-109.8c-45.8-90.3,14.5-116.3,55-156.3c20.9-20.7,43.7-38.7,69.4-61.3   c-82.6-66.9-172.2-107.2-260.3-148.5C2819.1,2139.4,2634.8,2106.6,2450.4,2078.8z"></path>
	<path class="st3" d="M2099.5,1551.2c2.8,49.4-19.4,91.2-39.3,127.9c-29.2,53.9-8.7,90.5,24.7,106.5   c70.1,33.6,96.8,101.3,112.1,177.3c12,59.4,35.2,77.2,85.9,76c148.4-3.6,297.8-11.8,444.6,20.7c201.8,44.7,399.5,108.3,593,221.5   c-2.9-73.8,10-145.7-11.4-197.5c-30.8-74.8-28.7-151.1-40.3-226.8C2910.8,1582,2511.8,1530.3,2099.5,1551.2z"></path>
	<polygon class="st3" points="1297.6,943.9 1297.6,943.9 1297.6,943.9  "></polygon>
	<path class="st3" d="M1232.1,1225.8c159-301.2,381.1-507.3,662.1-623.7c319.4-132.4,643.7-120.1,971.8-53.5   c70.4,14.3,138.9,79.6,216,28.8c-15.1-21.4-4.6-35.9,3.8-58.2c17.9-47.6,32.9-123.8-18.6-133.9c-52.7-10.3-108.6-53.8-169.3-12.6   c-22.9,15.5-60.5,13.6-89.5-6.1c-65.8-44.7-144.2-31.7-212.8-68.3c-34.1-18.2-87.1,3.7-95.4,38c-23.2,96.2-93.2,75-124.9,55.7   c-90.5-55-175.9-33.5-265.9-15.5c-277,55.4-524.8,174.5-713.1,437.8c-31.1,43.5-46.8,106.4-97.5,129.2   c-27.8,119.9-95.2,220.9-115.6,344.4C1215.9,1285.6,1219.2,1250.2,1232.1,1225.8z"></path>
	<path class="st3" d="M1298.8,942.5c-0.4,0.5-1.1,1.4-1.2,1.4c0.4-0.2,0.7-0.3,1.1-0.5c0.1-0.4,0.2-0.8,0.3-1.2c0,0,0,0.1-0.1,0.1   L1298.8,942.5z"></path>
	<path class="st4" d="M1097.1,1240.2c40.2,43.3,69.7,60,84-24.5c7.5-44.1,15.5-91.8,35.4-128.4c26.2-48.3,18.5-125.5,80.4-144.4   c-15.1-19.3,0.3-37.7,6.7-50c74-141.8,168.6-260.2,284.9-354.3c157.5-127.5,325.9-225.9,510.3-284.1c40.9-12.9,58.9-45.6,48.1-95.8   c-11.8-54.5-44.3-48.2-79.7-38.6c-57.2,15.5-114.7,32.1-174.2,17.4c-49.1,78.2-131.7,75.6-197.6,111.8   c-209.4,115-392.6,269.9-552.9,466.1c-31.3,38.3-65.8,73-98.8,109.4c28.2,52,25.7,108,7.8,161.2   C1000.7,1136.8,1000.1,1135.5,1097.1,1240.2z"></path>
	<path class="st4" d="M1297.6,943.9C1297.6,943.9,1297.6,943.9,1297.6,943.9L1297.6,943.9c0,0,0.8-0.9,1.2-1.4   c0.1-0.1,0.1-0.1,0.1-0.2c0.1-0.1,0.1-0.1,0.1-0.1c-0.7,0.2-1.5,0.4-2.2,0.7C1297.1,943.2,1297.3,943.6,1297.6,943.9L1297.6,943.9z   "></path>
	<path class="st2" d="M3243.9,1652.6c-165.9-87.7-338.4-138.8-519.3-165.8c-190.2-28.4-377.7-16.6-565.6,10.9   c-13.1,1.9-72.3-13.1-59.6,53.5c412.3-20.9,811.4,30.8,1169.4,305.7c34.7-35,52.4-91.1,100.6-108.3   C3336.8,1692.9,3288.7,1676.3,3243.9,1652.6z"></path>
	<path class="st5" d="M1695.3,249.2c65.9-36.2,148.5-33.6,197.6-111.8c-48.7-14.1-91.9,9-136.4,26.8c-46.1,18.4-108.6,63.9-137,43.6   c-86-61.3-140.9-55.2-208,37.3c-37.2,51.3-104.4,70.8-96,161.2c2.5,26.6-11.5,45.8-32.2,50.9c-131.3,32.1-156.5,194.4-243,281.8   c-21.9,22.2-24.6,58.5,3.3,85.7c33-36.4,67.5-71,98.8-109.4C1302.6,519.1,1485.9,364.2,1695.3,249.2z"></path>
	<path class="st3" d="M1770.4,1342.2c21.9-23.9,50.8-41.1,72.6-65c184.5-202.5,408.3-295.1,648.9-326.1c3.8-0.5,7.5-1,11.3-1.4   c4.1-0.5,8.3-1,12.4-1.4c6-0.7,12-1.3,18-1.9c18.5-1.8,36.9-3.2,55.3-4.2c6-0.3,12-0.6,18-0.8c10.5-0.4,21-0.7,31.5-0.8   c4.3-0.1,8.6-0.1,13-0.1c8.3,0,16.6,0,24.8,0.2c202.6,3.3,400.8,54.8,594.5,135.7c4.9,2,9.8,4.4,14.7,7   c28.1,14.5,57,33.1,89.7,11.1c0,0,0,0,0.1,0c0,0,0,0,0,0c0,0,0,0,0,0c-39.4-57.7-110.4-83.6-120-172.6   c-1.7-15.8-22.6-14.4-36.3-18.7c-236.2-75.1-473.9-105.9-718.4-61.7c-247,44.7-463.9,159.8-655.8,349.9   c-18.6,18.5-35.3,43.1-55,62.2c-48.5,58-120.7,151.6-155,232.8c17.4,16,35.8,7,54.6-12.5c6.8-20.3,20.8-24.9,37.2-24.4   c4.2-4.9,8.3-9.9,12.4-14.8c0,0,0,0,0,0C1736.3,1391.3,1750.4,1364,1770.4,1342.2z"></path>
	<path class="st6" d="M2335.6,2851.8c-0.9-1-1.9-2.1-2.8-3.1c-0.4,0-0.8,0-1.2,0c20.3,61,75.8,102.7,73.8,174.7   c-2.4,85.4,46.9,101.7,97.7,103.2c55.4,1.7,111-15.7,166.7-18.8c81.6-4.6,150-41.5,208.8-107.1c-0.4-0.3-0.8-0.7-1.2-1   c-1.5,0.5-3,0.9-4.6,1.3C2710.7,2864.4,2525.9,2844,2335.6,2851.8z"></path>
	<path class="st7" d="M2278.7,2789.3c23.9,26.2,39.3,43.1,54.1,59.4c0.9,1,1.9,2.1,2.8,3.1c190.3-7.8,375.1,12.7,537.2,149.3   c1.6-0.4,3.1-0.8,4.6-1.3c47.9-15.8,52.5-77.9,89.9-109.5C2745.2,2770.9,2519.2,2782.4,2278.7,2789.3z"></path>
	<path class="st8" d="M184.6,1781.8c0-23.7,16.8-39.2,45.4-39.2c29.2,0,46.6,16,47.2,49.2h78.3c-0.6-74.2-47.9-119.9-125.6-119.9   c-77.1,0-123.1,46.3-123.1,108c0,125.2,175.3,131.1,175.3,206.5c0,26.7-16.8,46.3-51.6,46.3c-32.9,0-53.5-17.2-54.1-54.6H98.2   c0.6,80.1,51.6,125.8,131.8,125.8c83.9,0,131.8-51.6,131.8-116.9C361.7,1856.5,184.6,1854.1,184.6,1781.8z"></path>
	<polygon class="st8" points="594.2,2095.6 671.3,2095.6 671.3,1680.3 594.2,1680.3 594.2,1851.2 489.1,1851.2 489.1,1680.3    412.7,1680.3 412.7,2095.6 489.1,2095.6 489.1,1920.6 594.2,1920.6  "></polygon>
	<path class="st8" d="M812.3,2020.3h101.9l17.4,75.4h79.6l-106.9-415.3h-82l-106.9,415.3h79.6L812.3,2020.3z M845.3,1873.7   c6.2-28.5,13.1-74.2,16.8-102.1h1.9c4.4,27.9,11.2,73.6,17.4,102.1l17.4,77.1h-70.9L845.3,1873.7z"></path>
	<path class="st8" d="M1308.3,1814.4c0-84.8-49.1-134.1-134.3-134.1h-119.3v415.3h76.4v-144.8h34.8l77.7,144.8h83.9l-87.6-157.8   C1284.1,1917.6,1308.3,1874.9,1308.3,1814.4z M1173.4,1881.4h-42.3v-131.7h42.3c36.7,0,56.6,22.5,56.6,65.3   C1230,1858.3,1210.1,1881.4,1173.4,1881.4z"></path>
	<polygon class="st8" points="1594.2,1749.1 1594.2,1680.3 1375.4,1680.3 1375.4,2095.6 1600.4,2095.6 1600.4,2026.8 1451.9,2026.8    1451.9,1918.2 1582.4,1918.2 1582.4,1851.8 1451.9,1851.8 1451.9,1749.1  "></polygon>
	<path class="st8" d="M1778.2,1680.3h-113.7v415.3h115c85.2,0,135.5-50.4,135.5-135.9v-145.4   C1914.9,1729.5,1864.6,1680.3,1778.2,1680.3z M1837.9,1959.2c0,43.9-20.5,67-58.4,67h-38.5v-276.5h38.5c37.9,0,58.4,22,58.4,64.7   V1959.2z"></path>
	<path class="st8" d="M610.3,2566.8h81.4l105-415.3h-79.6l-45.4,211.2c-6.8,33.2-14.3,79.5-19.9,113.3h-2.5   c-5-33.8-12.4-80.1-19.3-113.3l-45.4-211.2h-79.6L610.3,2566.8z"></path>
	<path class="st8" d="M890.7,2151.5l-106.9,415.3h79.6l17.4-75.4h101.9l17.4,75.4h79.6l-106.9-415.3H890.7z M967.1,2422h-70.9   l17.4-77.1c6.2-28.5,13.1-74.2,16.8-102.1h1.9c4.4,27.9,11.2,73.6,17.4,102.1L967.1,2422z"></path>
	<path class="st8" d="M1129.7,2548c3.8-5.4,39.1-42.7,44.2-43.9c3.8-1.2,17.7,4.2,24,1.8c5.7-2.4,7.6-4.8,15.8-3.6   c6.7,21.8,7.4,44,5.6,64.4h116.4v-69.4h-136.1v-345.9h-76.4v415.2c1.1-2,2.3-3.8,3.5-5.5C1128.4,2557,1129.1,2552.8,1129.7,2548z"></path>
	<path class="st8" d="M1543.3,2151.5v286c0,43.3-19.9,65.3-54.7,65.3s-54.7-22-54.7-65.3v-286h-77.7v286   c0,86,50.3,135.9,132.4,135.9s132.4-49.8,132.4-135.9v-286H1543.3z"></path>
	<polygon class="st8" points="1920.5,2566.8 1920.5,2498 1772,2498 1772,2389.4 1902.5,2389.4 1902.5,2322.9 1772,2322.9    1772,2220.3 1914.3,2220.3 1914.3,2151.5 1695.5,2151.5 1695.5,2566.8  "></polygon>
	
		<linearGradient id="SVGID_1_" gradientUnits="userSpaceOnUse" x1="2961.2202" y1="6461.2646" x2="2961.2202" y2="9041.8584" gradientTransform="matrix(0.4825 0 0 0.353 -27.16 132.3217)">
		<stop offset="0" style="stop-color:#F15B2F"></stop>
		<stop offset="0.2183" style="stop-color:#F15E2F"></stop>
		<stop offset="0.382" style="stop-color:#F26631"></stop>
		<stop offset="0.528" style="stop-color:#F37336"></stop>
		<stop offset="0.6635" style="stop-color:#F5833D"></stop>
		<stop offset="0.7919" style="stop-color:#F89847"></stop>
		<stop offset="0.9132" style="stop-color:#FBB255"></stop>
		<stop offset="1" style="stop-color:#FFC962"></stop>
	</linearGradient>
	<path class="st9" d="M1387.7,2897.7c0,4.2-1.9,14.4-2.5,18.6l-1.3,14.4c-3.2,12.6-10.7,29.4-13.2,40.9c-5,24.6-9.5,43.9-12,49.3   c0.6,3,1.3,4.2,1.9,6c19.6,3.6,58,7.8,59.3-12c0.6-0.6-5-1.8-6.9-6.6c-2.5-2.4-5-8.4-5.7-13.8c1.3-3.6,5.7-22.8,11.4-46.9   c4.4-16.8,6.3-43.9,10.7-62.5c7.6-34.2,16.4-57.7,15.1-63.1c-8.8-0.6-27.1-1.2-34.7,4.8c-6.9,3-8.8,16.8-17,49.9   c0,2.4-3.8,10.2-3.8,13.2C1389,2892.3,1390.9,2898.3,1387.7,2897.7z"></path>
	
		<linearGradient id="SVGID_00000165212447045864870760000016106580886847563449_" gradientUnits="userSpaceOnUse" x1="3022.3823" y1="6461.2646" x2="3022.3823" y2="9041.8584" gradientTransform="matrix(0.4825 0 0 0.353 -27.16 132.3217)">
		<stop offset="0" style="stop-color:#F15B2F"></stop>
		<stop offset="0.2183" style="stop-color:#F15E2F"></stop>
		<stop offset="0.382" style="stop-color:#F26631"></stop>
		<stop offset="0.528" style="stop-color:#F37336"></stop>
		<stop offset="0.6635" style="stop-color:#F5833D"></stop>
		<stop offset="0.7919" style="stop-color:#F89847"></stop>
		<stop offset="0.9132" style="stop-color:#FBB255"></stop>
		<stop offset="1" style="stop-color:#FFC962"></stop>
	</linearGradient>
	<path style="fill:url(#SVGID_00000165212447045864870760000016106580886847563449_);" d="M1447,2732.5c3.8-2.4,2.5-11.4,6.3-15   c-1.9-3.6-3.2-6.6-5.7-8.4c-2.5-1.2-5-1.2-10.1-1.2c-4.4,2.4-12,0-15.1,1.2c-5,1.2-8.2,4.2-13.2,6c0,3.6-0.6,3.6,0.6,5.4   C1412.3,2728.9,1440.1,2736.7,1447,2732.5z"></path>
	
		<linearGradient id="SVGID_00000003797828708323280390000007469890613681923003_" gradientUnits="userSpaceOnUse" x1="3482.7034" y1="6461.2646" x2="3482.7034" y2="9041.8584" gradientTransform="matrix(0.4825 0 0 0.353 -27.16 132.3217)">
		<stop offset="0" style="stop-color:#F15B2F"></stop>
		<stop offset="0.2183" style="stop-color:#F15E2F"></stop>
		<stop offset="0.382" style="stop-color:#F26631"></stop>
		<stop offset="0.528" style="stop-color:#F37336"></stop>
		<stop offset="0.6635" style="stop-color:#F5833D"></stop>
		<stop offset="0.7919" style="stop-color:#F89847"></stop>
		<stop offset="0.9132" style="stop-color:#FBB255"></stop>
		<stop offset="1" style="stop-color:#FFC962"></stop>
	</linearGradient>
	<path style="fill:url(#SVGID_00000003797828708323280390000007469890613681923003_);" d="M1469.7,2950.6c-1.9,1.8-1.9,1.8-6.3,2.4   c-1.3,16.8-18.9,30.6-3.2,52.9c30.1,60.2,144.2,14.8,184.1-2.5c0.2,2.5,0,5.1-1.1,7.9c1.3,3,2.5,6,4.4,9   c47.9,0,73.8-14.4,106.6-30.6c2.5,7.8,1.3,34.2,5.7,42.1c8.2,16.8,9.5,42.1,21.4,63.7c4.4,6.6,10.7,7.2,13.9,15   c12.6,0.6,20.2,4.8,27.1-3c3.8-1.8,3.2-3,6.9-5.4c-3.8-15.6-8.8-27.6-15.1-45.7c-6.3-16.8-1.3-30.6-5.7-45.7   c-2.5-5.4-6.3-18.6-5.7-27c1.3-10.8,3.8-23.4,5.7-36.7c-0.6-3.6-0.6-7.8-1.3-11.4c3.8-13.8,14.5-30,19.6-43.9   c5.7-13.8,4.4-25.8,12.6-36.1c-1.9-15,5-23.4-3.2-28.8c1.9-6,12.6-13.8,15.8-22.2c1.3-1.8,0.6-0.6,0.6-3.6   c-0.6-0.6-1.3-1.2-1.3-1.8h-6.9c-5.7,4.8-15.8,0-23.3,3.6c-6.3,3-10.1,13.8-15.8,16.8c-5.7,3.6-11.4,1.2-16.4,5.4   c0,1.8-1.3,3.6-0.6,5.4h-8.8c-6.9,4.2-13.9,15.6-20.8,19.8h-6.9c-3.8,2.4-3.8,8.4-5.7,11.4c-3.8,4.2-8.8,3.6-13.2,7.2   c-6.9,6-10.1,19.2-16.4,25.2c-23.2,21.5-59.4,64.9-71.6,94.9c-0.4-0.8-0.9-1.7-1.5-3c-27.8-1.2-65.6,27.6-92.1,15.6   c-12-5.4-22.7-19.8-32.8-27.6c-4.4-29.4,5.7-27,13.2-42.7c9.5-19.8,26.5-51.1,43.5-63.1c16.4-11.4,36-15,51.1-25.2   c-1.3-13.8-1.3-9.6-4.4-22.8c-24,0-52.4-1.8-61.8,12.6c-3.8,6.6-1.9,15-8.2,20.4c-3.8,3.6-13.2,4.8-13.2,4.8   c-2.5,1.8-3.2,10.2-5,12.6c-15.1,14.4-28.4,16.8-35.3,40.3h-8.2c0.6,2.4,1.3,4.8,1.3,7.2   C1480.4,2921.8,1475.4,2941.6,1469.7,2950.6z M1727.7,2918.1h5.7c8.8-26.4,36.6-37.9,49.8-60.1h3.2c-0.6,12-19.6,81.1-27.8,89.5   c-6.9,7.8-15.8,16.8-24.6,23.4c-6.3,6-12,1.2-17,9.6c-7.6-0.6-8.8-1.8-12-4.2C1705,2951.2,1725.8,2939.8,1727.7,2918.1z"></path>
	
		<linearGradient id="SVGID_00000034071446020339659380000000043975048105936559_" gradientUnits="userSpaceOnUse" x1="2064.6675" y1="6461.2646" x2="2064.6675" y2="9041.8584" gradientTransform="matrix(0.4825 0 0 0.353 -27.16 132.3217)">
		<stop offset="0" style="stop-color:#F15B2F"></stop>
		<stop offset="0.2183" style="stop-color:#F15E2F"></stop>
		<stop offset="0.382" style="stop-color:#F26631"></stop>
		<stop offset="0.528" style="stop-color:#F37336"></stop>
		<stop offset="0.6635" style="stop-color:#F5833D"></stop>
		<stop offset="0.7919" style="stop-color:#F89847"></stop>
		<stop offset="0.9132" style="stop-color:#FBB255"></stop>
		<stop offset="1" style="stop-color:#FFC962"></stop>
	</linearGradient>
	<path style="fill:url(#SVGID_00000034071446020339659380000000043975048105936559_);" d="M724.7,2886.3c-8.8,1.2-8.2,2.4-12,7.2   c-1.3-2.4-32.8,5.4-42.3,8.4c-35.3,12-74.4,23.4-105.4,39.1c0,1.8,0.6,3.6,1.3,5.4c27.8,0.6,59.3-10.2,82.6-19.8   c5.7-1.2,11.4-1.8,17-3c10.1-4.8,22.1-12.6,36-13.2c-1.9,9.6-9.5,18.6-16.4,23.4c0,1.2,0,2.4,0,4.2h-5c-8.8,19.8-24.6,34.9-36,51.7   c-6.9,9.6-10.1,20.4-18.3,30c-6.9,8.4-15.8,15-16.4,30c5,0.6,6.3,1.8,10.7,3c13.9-10.8,35.3-21.6,45.4-36.1   c7.6-11.4-0.6-25.2,5.7-38.5l7.6-7.2c4.4-6.6,4.4-13.2,8.8-18.6c4.4-4.8,11.4-9.6,15.1-14.4c8.8-10.8,12-26.4,22.7-34.2   c1.3-1.2,22.1-10.2,22.7-10.2c2.5,0.6,5,1.8,7.6,3c0.6-1.8,1.3-3,1.3-4.8c6.9-1.2,14.5-2.4,21.4-4.2c0.6-1.2,1.9-3,3.2-4.2   c6.3-2.4,18.9,0,28.4-3c3.8-1.2,6.9-6,10.7-7.2l13.2,1.8c8.8-2.4,16.4-4.8,25.9-4.2c2.5,28.8,8.2,79.3,19.6,116   c1.3,4.8-1.3,12-1.9,14.4c-1.3,8.4,4.4,18.6,6.3,22.8c3.2,7.8-5,25.8-3.2,34.2c6.9,6.6-1.9,24.6,0,33c0.6,3,5.7,4.8,6.3,6   c-1.3,12.6-1.9,24.6-3.2,37.2c0,3.6,3.2,6.6,3.2,8.4c0,3.6-1.9,5.4,0,9c1.9,4.2,3.2,4.2,5.7,7.2c4.4,0,8.2,0,10.7-1.8   c18.9,0.6,29.7-15,24.6-35.4c-1.9-7.2-9.5-15-10.7-21.6c-3.2-17.4,5-55.3,4.4-78.7c-1.3-35.4-5.7-77.5-8.8-99.1   c-1.9-10.2-7.6-37.9-3.2-47.5c1.3-7.8,3.8-7.8,7.6-12.6c26.5,0,38.5-3,63.1-4.2c16.5-1.5,30.3,5.9,44.8,1.1   c-0.2,3.3-0.1,6.6-1.9,9.2c0.6,1.2,0.6,1.8,0.6,3h-4.4c2.5,5.4,1.9,3.6,4.4,6.6c-2.5,2.4-2.5,4.8-3.2,8.4c-45.4,18-53,15-91.5,39.1   c2.5,9,6.9,9,11.4,14.4c38.5,0.6,6.9,0.6,31.5-11.4c15.1-7.2,27.1-4.2,34.7-16.2h8.8c-6.9,42.1-16.4,73.3-22.7,119.6l3.8,7.8   c-1.9,16.8-5,31.2-7.6,47.5c-0.6,7.8,3.2,12.6,3.2,18c-13.9,49.9-25.2,136.4-29.6,192.9c-2.5,17.4,32.8-2.4,33.4-6.6   c1.3-7.2,6.3-16.2,6.9-21.6c1.3-4.8,5-10.2,7.6-14.4c-1.3-4.8,1.9-8.4,1.9-13.2c4.4-13.2,17-72.1,12-83.5   c6.3-10.8,8.2-28.8,3.2-40.9c3.8-0.6,0.6,0,5,0c-1.9-22.2,5.7-46.3,8.2-66.7l-3.2-24.6c15.1-34.2,6.3-97.3,23.3-137   c39.7-9,44.2-11.4,84.5-23.4c7-2.2,12.9-2.7,18.4-2.6c-0.1,0.1-0.1,0.1-0.1,0.2c6.3,40.3-5,140.6-20.8,175.4   c9.5,28.8,28.4,0,38.5-4.8h12.6c10.1-7.2,24.6-47.5,33.4-57.1c13.9-14.4,28.4-58.9,44.8-68.5l12-1.8c6.3-4.2,22.1-19.2,31.5-14.4   c12.6,0.6,18.9,9.6,24.6,18.6c8.8,0,15.1,0.6,20.8-4.2c8.2-3,12.6-18,10.7-25.8c-1.3-3.6-1.3-3.6-3.2-5.4   c-12.6-9-37.8-3.6-52.4-3.6c-40.4-0.6-78.2,34.8-107.2,69.7l-1.9-1.8c0.6-17.4,6.9-29.4,9.5-46.3c1.9-9.6-3.2-22.2-0.6-29.4   c-0.5-6.7-1.6-13.2-3-18c0.7-1,1.5-2.1,2.4-3c-3.2-3.6-5.7-5.4-7.6-10.2c-16.4-1.8-21.4,6-37.8,8.4c-17.7,3-18.3,0.6-35.3,9.6   c-12,6-14.5,0.6-28.4,4.2c-11.4,2.4-23.3,10.8-33.4,6.6h-3.2c0.6-18.6,8.8-41.5,13.2-52.3c5.7-12-1.9-8.4,0-17.4   c1.9-7.2,8.8-18,9.5-26.4c0-1.8-0.6-4.2-1.9-6.6c1.3-0.6,3.2-0.6,5-1.2c5-8.4,3.2-19.2,5.7-29.4c5-20.4,5.7-8.4,11.4-28.2   c9.5-33.6,20.2-71.5,34.7-96.1c6.3-11.4,3.2-14.4,10.7-24.6c0,0,6.3-10.2,5.7-10.8c2.5,0,3.8-3,7.6,1.2c1.9,3.6,5,14.4,6.3,16.8   c-0.6,15.1,8.7,42,7,59.5c1.7,15,3,31.7,3,34.2c2.6,5,0.9,2.5,5.2,7.5c0.9-12.5,2.6-17.5,5.2-27.5h1.7c-0.6-12.2-1.8-14.5-3.6-20.9   c18-2.1,15.5-31.3,19.3-48.6c1.3-7.6,2.4-15.6,3.1-23.9h-96.1v-0.1c-10,17.2-19.1,44.9-28.7,64.8c-1.9,4.8,0.6,11.4,0,13.2   c-5,12-14.5,27.6-17.7,37.2c-3.8,8.4-1.3,21-5.7,27.6c-13.2,22.8-10.1,25.8-17.7,52.9c0,3,0.6,6.6,1.3,9.6c-2.5,6-7.6,10.2-8.2,18   h-1.9c0.6,1.2,0.6,2.4,0.6,3h3.2c-0.6,15-5.7,21.6-11.4,39.1c-1.6,2-5.2,6-6.5,8.3c-32.7-0.8-95.8-5-117.2,5.5   c-1.9-1.8-3.2-2.4-6.3-4.2l-5.7-51.7c-1.9-10.8,2.5-36.7,1.3-47.5c-2.5-22.2-1.9-46.9,3.2-68.5c5-22.2-3.2-48.7,4.4-61.9   c0-8.4-0.6-12-4.4-15.6c-17-7.8-28.4,11.4-39.7,18c-1.3,17.4-6.3,48.7-8.8,66.1c-1.3,10.2,0.6,24.6-1.3,28.8   c-5,10.2-16.4,18.6-22.7,27c-5.7,7.2-10.1,19.2-13.9,23.4c-5,6-13.9,11.4-17.7,18.6c-3.2,4.8-2.5,9-6.3,12.6   c-1.3,0.6-3.2,1.2-4.4,1.8l-1.9,8.4c-4.4,7.8-15.8,15-20.8,22.8c-10.7,17.4-27.1,46.3-43.5,57.7V2886.3z M755,2861.7h4.4   c3.8-14.4,18.3-25.8,27.1-37.3c22.7-30.6,44.8-60.7,66.2-91.9c3.2,4.2-0.6,10.2,1.3,21.6c3.2,16.2-0.6,52.3,1.9,67.3   c1.3,10.2,4.4,26.4,0,31.8c-5,3-8.8,0.6-13.9,1.2c-22.7,3.6-49.8,12.6-66.2,17.4c-6.9,1.8-14.5,1.2-19.6,4.2h-7.6   C750.6,2870.7,753.7,2868.9,755,2861.7z"></path>
	<path class="st8" d="M1219.2,2566.8c1.8-20.5,1.1-42.6-5.6-64.4c-8.2-1.2-10.1,1.2-15.8,3.6c-6.3,2.4-20.2-3-24-1.8   c-5,1.2-40.4,38.5-44.2,43.9c-0.6,4.8-1.3,9-3.2,13.2c-1.2,1.7-2.3,3.5-3.5,5.5v0.1H1219.2z"></path>
	
		<linearGradient id="SVGID_00000142860321158889664750000000315671619777717940_" gradientUnits="userSpaceOnUse" x1="2484.4165" y1="6461.2646" x2="2484.4165" y2="9041.8584" gradientTransform="matrix(0.4825 0 0 0.353 -27.16 132.3217)">
		<stop offset="0" style="stop-color:#F15B2F"></stop>
		<stop offset="0.2183" style="stop-color:#F15E2F"></stop>
		<stop offset="0.382" style="stop-color:#F26631"></stop>
		<stop offset="0.528" style="stop-color:#F37336"></stop>
		<stop offset="0.6635" style="stop-color:#F5833D"></stop>
		<stop offset="0.7919" style="stop-color:#F89847"></stop>
		<stop offset="0.9132" style="stop-color:#FBB255"></stop>
		<stop offset="1" style="stop-color:#FFC962"></stop>
	</linearGradient>
	<path style="fill:url(#SVGID_00000142860321158889664750000000315671619777717940_);" d="M1219.2,2566.8   c1.8-20.5,1.1-42.6-5.6-64.4c-8.2-1.2-10.1,1.2-15.8,3.6c-6.3,2.4-20.2-3-24-1.8c-5,1.2-40.4,38.5-44.2,43.9   c-0.6,4.8-1.3,9-3.2,13.2c-1.2,1.7-2.3,3.5-3.5,5.5v0.1H1219.2z"></path>
</g>
</svg>
